<svg xmlns="http://www.w3.org/2000/svg" viewBox="0 0 512 512">
  <defs>
    <linearGradient id="bg" x1="0" y1="0" x2="1" y2="1">
      <stop stop-color="#46d8e7"/>
      <stop offset="1" stop-color="#9be6bd"/>
    </linearGradient>
    <filter id="shadow" x="-20%" y="-20%" width="140%" height="150%">
      <feDropShadow dx="0" dy="12" stdDeviation="9" flood-color="#176175" flood-opacity=".28"/>
    </filter>
  </defs>
  <rect width="512" height="512" rx="58" fill="url(#bg)"/>
  <circle cx="69" cy="72" r="8" fill="#fff"/>
  <circle cx="440" cy="94" r="11" fill="#ffe45c"/>
  <circle cx="457" cy="420" r="7" fill="#ff7f79"/>
  <g filter="url(#shadow)">
    <rect x="70" y="66" width="372" height="372" rx="34" fill="#244b70"/>
    <g fill="#fffbed" stroke="#d4e8dc" stroke-width="4">
      <rect x="92" y="88" width="94" height="94" rx="17"/>
      <rect x="209" y="88" width="94" height="94" rx="17"/>
      <rect x="326" y="88" width="94" height="94" rx="17"/>
      <rect x="92" y="205" width="94" height="94" rx="17"/>
      <rect x="209" y="205" width="94" height="94" rx="17"/>
      <rect x="326" y="205" width="94" height="94" rx="17"/>
      <rect x="92" y="322" width="94" height="94" rx="17"/>
      <rect x="209" y="322" width="94" height="94" rx="17"/>
      <rect x="326" y="322" width="94" height="94" rx="17"/>
    </g>
    <path d="M139 135L256 252L373 369" fill="none" stroke="#ffd84c" stroke-width="44" stroke-linecap="round" opacity=".9"/>
    <g fill="#173657" font-family="Arial,sans-serif" font-size="55" font-weight="900" text-anchor="middle">
      <text x="139" y="154">J</text><text x="256" y="154">A</text><text x="373" y="154">M</text>
      <text x="139" y="271">B</text><text x="256" y="271">E</text><text x="373" y="271">R</text>
      <text x="139" y="388">S</text><text x="256" y="388">O</text><text x="373" y="388">U</text>
    </g>
  </g>
  <g transform="translate(357 338) rotate(-18)" filter="url(#shadow)">
    <circle cx="0" cy="0" r="61" fill="none" stroke="#ff6f79" stroke-width="20"/>
    <path d="M42 45L96 101" stroke="#ff6f79" stroke-width="24" stroke-linecap="round"/>
    <circle cx="-18" cy="-20" r="12" fill="#fff" opacity=".7"/>
  </g>
</svg>
